<?xml version="1.0" encoding="UTF-8" standalone="no"?>
<!DOCTYPE svg PUBLIC "-//W3C//DTD SVG 1.1//EN"
 "http://www.w3.org/Graphics/SVG/1.1/DTD/svg11.dtd">
<!-- Generated by graphviz version 2.47.3 (20210619.1520)
 -->
<!-- Title: dependencies Pages: 1 -->
<svg width="290pt" height="174pt"
 viewBox="0.00 0.00 290.00 173.80" xmlns="http://www.w3.org/2000/svg" xmlns:xlink="http://www.w3.org/1999/xlink">
<g id="graph0" class="graph" transform="scale(1 1) rotate(0) translate(4 169.8)">
<title>dependencies</title>
<polygon fill="white" stroke="transparent" points="-4,4 -4,-169.8 286,-169.8 286,4 -4,4"/>
<text text-anchor="middle" x="141" y="-8.2" font-family="sans-serif" font-size="14.00">dependencies</text>
<g id="clust1" class="cluster">
<title>cluster_BankAccountTypesModule</title>
<polygon fill="none" stroke="black" stroke-dasharray="1,5" points="8,-32.8 8,-157.8 274,-157.8 274,-32.8 8,-32.8"/>
</g>
<g id="clust6" class="cluster">
<title>cluster_BankAccountTypesModule_providers</title>
<polygon fill="none" stroke="black" points="16,-40.8 16,-92.8 266,-92.8 266,-40.8 16,-40.8"/>
</g>
<!-- BankAccountTypesService -->
<g id="node1" class="node">
<title>BankAccountTypesService</title>
<ellipse fill="#fdb462" stroke="black" cx="141" cy="-66.8" rx="116.88" ry="18"/>
<text text-anchor="middle" x="141" y="-62.6" font-family="Times,serif" font-size="14.00">BankAccountTypesService</text>
</g>
<!-- BankAccountTypesModule -->
<g id="node2" class="node">
<title>BankAccountTypesModule</title>
<polygon fill="#8dd3c7" stroke="black" points="226.24,-149.8 223.24,-153.8 202.24,-153.8 199.24,-149.8 55.76,-149.8 55.76,-113.8 226.24,-113.8 226.24,-149.8"/>
<text text-anchor="middle" x="141" y="-127.6" font-family="Times,serif" font-size="14.00">BankAccountTypesModule</text>
</g>
<!-- BankAccountTypesService&#45;&gt;BankAccountTypesModule -->
<g id="edge1" class="edge">
<title>BankAccountTypesService&#45;&gt;BankAccountTypesModule</title>
<path fill="none" stroke="black" d="M141,-84.91C141,-84.91 141,-103.79 141,-103.79"/>
<polygon fill="black" stroke="black" points="137.5,-103.79 141,-113.79 144.5,-103.79 137.5,-103.79"/>
</g>
</g>
</svg>
