<?xml version="1.0" encoding="UTF-8" standalone="no"?>
<!DOCTYPE svg PUBLIC "-//W3C//DTD SVG 1.1//EN"
 "http://www.w3.org/Graphics/SVG/1.1/DTD/svg11.dtd">
<!-- Generated by graphviz version 2.47.3 (20210619.1520)
 -->
<!-- Title: dependencies Pages: 1 -->
<svg width="694pt" height="174pt"
 viewBox="0.00 0.00 694.00 173.80" xmlns="http://www.w3.org/2000/svg" xmlns:xlink="http://www.w3.org/1999/xlink">
<g id="graph0" class="graph" transform="scale(1 1) rotate(0) translate(4 169.8)">
<title>dependencies</title>
<polygon fill="white" stroke="transparent" points="-4,4 -4,-169.8 690,-169.8 690,4 -4,4"/>
<text text-anchor="middle" x="343" y="-8.2" font-family="sans-serif" font-size="14.00">dependencies</text>
<g id="clust1" class="cluster">
<title>cluster_AppModule</title>
<polygon fill="none" stroke="black" stroke-dasharray="1,5" points="8,-32.8 8,-157.8 678,-157.8 678,-32.8 8,-32.8"/>
</g>
<g id="clust6" class="cluster">
<title>cluster_AppModule_providers</title>
<polygon fill="none" stroke="black" points="540,-40.8 540,-92.8 670,-92.8 670,-40.8 540,-40.8"/>
</g>
<g id="clust3" class="cluster">
<title>cluster_AppModule_imports</title>
<polygon fill="none" stroke="black" points="16,-40.8 16,-92.8 532,-92.8 532,-40.8 16,-40.8"/>
</g>
<!-- BankAccountTypesModule -->
<g id="node1" class="node">
<title>BankAccountTypesModule</title>
<polygon fill="#8dd3c7" stroke="black" points="524.24,-84.8 521.24,-88.8 500.24,-88.8 497.24,-84.8 353.76,-84.8 353.76,-48.8 524.24,-48.8 524.24,-84.8"/>
<text text-anchor="middle" x="439" y="-62.6" font-family="Times,serif" font-size="14.00">BankAccountTypesModule</text>
</g>
<!-- AppModule -->
<g id="node4" class="node">
<title>AppModule</title>
<polygon fill="#8dd3c7" stroke="black" points="393.66,-149.8 390.66,-153.8 369.66,-153.8 366.66,-149.8 310.34,-149.8 310.34,-113.8 393.66,-113.8 393.66,-149.8"/>
<text text-anchor="middle" x="352" y="-127.6" font-family="Times,serif" font-size="14.00">AppModule</text>
</g>
<!-- BankAccountTypesModule&#45;&gt;AppModule -->
<g id="edge1" class="edge">
<title>BankAccountTypesModule&#45;&gt;AppModule</title>
<path fill="none" stroke="black" d="M373.73,-84.91C373.73,-84.91 373.73,-103.79 373.73,-103.79"/>
<polygon fill="black" stroke="black" points="370.23,-103.79 373.73,-113.79 377.23,-103.79 370.23,-103.79"/>
</g>
<!-- BankAccountsModule -->
<g id="node2" class="node">
<title>BankAccountsModule</title>
<polygon fill="#8dd3c7" stroke="black" points="335.97,-84.8 332.97,-88.8 311.97,-88.8 308.97,-84.8 194.03,-84.8 194.03,-48.8 335.97,-48.8 335.97,-84.8"/>
<text text-anchor="middle" x="265" y="-62.6" font-family="Times,serif" font-size="14.00">BankAccountsModule</text>
</g>
<!-- BankAccountsModule&#45;&gt;AppModule -->
<g id="edge2" class="edge">
<title>BankAccountsModule&#45;&gt;AppModule</title>
<path fill="none" stroke="black" d="M323.08,-84.91C323.08,-84.91 323.08,-103.79 323.08,-103.79"/>
<polygon fill="black" stroke="black" points="319.58,-103.79 323.08,-113.79 326.58,-103.79 319.58,-103.79"/>
</g>
<!-- BankEmployeesModule -->
<g id="node3" class="node">
<title>BankEmployeesModule</title>
<polygon fill="#8dd3c7" stroke="black" points="175.81,-84.8 172.81,-88.8 151.81,-88.8 148.81,-84.8 24.19,-84.8 24.19,-48.8 175.81,-48.8 175.81,-84.8"/>
<text text-anchor="middle" x="100" y="-62.6" font-family="Times,serif" font-size="14.00">BankEmployeesModule</text>
</g>
<!-- BankEmployeesModule&#45;&gt;AppModule -->
<g id="edge3" class="edge">
<title>BankEmployeesModule&#45;&gt;AppModule</title>
<path fill="none" stroke="black" d="M100,-84.91C100,-104.14 100,-131.8 100,-131.8 100,-131.8 300.1,-131.8 300.1,-131.8"/>
<polygon fill="black" stroke="black" points="300.1,-135.3 310.1,-131.8 300.1,-128.3 300.1,-135.3"/>
</g>
<!-- AppService -->
<g id="node5" class="node">
<title>AppService</title>
<ellipse fill="#fdb462" stroke="black" cx="605" cy="-66.8" rx="56.74" ry="18"/>
<text text-anchor="middle" x="605" y="-62.6" font-family="Times,serif" font-size="14.00">AppService</text>
</g>
<!-- AppService&#45;&gt;AppModule -->
<g id="edge4" class="edge">
<title>AppService&#45;&gt;AppModule</title>
<path fill="none" stroke="black" d="M605,-84.91C605,-104.14 605,-131.8 605,-131.8 605,-131.8 403.78,-131.8 403.78,-131.8"/>
<polygon fill="black" stroke="black" points="403.78,-128.3 393.78,-131.8 403.78,-135.3 403.78,-128.3"/>
</g>
</g>
</svg>
