<?xml version="1.0" encoding="UTF-8" standalone="no"?>
<!DOCTYPE svg PUBLIC "-//W3C//DTD SVG 1.1//EN"
 "http://www.w3.org/Graphics/SVG/1.1/DTD/svg11.dtd">
<!-- Generated by graphviz version 2.47.3 (20210619.1520)
 -->
<!-- Title: dependencies Pages: 1 -->
<svg width="802pt" height="250pt"
 viewBox="0.00 0.00 802.00 249.80" xmlns="http://www.w3.org/2000/svg" xmlns:xlink="http://www.w3.org/1999/xlink">
<g id="graph0" class="graph" transform="scale(1 1) rotate(0) translate(4 245.8)">
<title>dependencies</title>
<polygon fill="white" stroke="transparent" points="-4,4 -4,-245.8 798,-245.8 798,4 -4,4"/>
<text text-anchor="middle" x="397" y="-8.2" font-family="sans-serif" font-size="14.00">dependencies</text>
<g id="clust1" class="cluster">
<title>cluster_AppModule</title>
<polygon fill="none" stroke="black" stroke-dasharray="1,5" points="8,-108.8 8,-233.8 678,-233.8 678,-108.8 8,-108.8"/>
</g>
<g id="clust3" class="cluster">
<title>cluster_AppModule_imports</title>
<polygon fill="none" stroke="black" points="154,-116.8 154,-168.8 670,-168.8 670,-116.8 154,-116.8"/>
</g>
<g id="clust6" class="cluster">
<title>cluster_AppModule_providers</title>
<polygon fill="none" stroke="black" points="16,-116.8 16,-168.8 146,-168.8 146,-116.8 16,-116.8"/>
</g>
<g id="clust7" class="cluster">
<title>cluster_BankAccountsModule</title>
<polygon fill="none" stroke="black" stroke-dasharray="1,5" points="40,-32.8 40,-100.8 266,-100.8 266,-32.8 40,-32.8"/>
</g>
<g id="clust12" class="cluster">
<title>cluster_BankAccountsModule_providers</title>
<polygon fill="none" stroke="black" points="48,-40.8 48,-92.8 258,-92.8 258,-40.8 48,-40.8"/>
</g>
<g id="clust13" class="cluster">
<title>cluster_BankAccountTypesModule</title>
<polygon fill="none" stroke="black" stroke-dasharray="1,5" points="274,-32.8 274,-100.8 540,-100.8 540,-32.8 274,-32.8"/>
</g>
<g id="clust18" class="cluster">
<title>cluster_BankAccountTypesModule_providers</title>
<polygon fill="none" stroke="black" points="282,-40.8 282,-92.8 532,-92.8 532,-40.8 282,-40.8"/>
</g>
<g id="clust19" class="cluster">
<title>cluster_BankEmployeesModule</title>
<polygon fill="none" stroke="black" stroke-dasharray="1,5" points="548,-32.8 548,-100.8 786,-100.8 786,-32.8 548,-32.8"/>
</g>
<g id="clust24" class="cluster">
<title>cluster_BankEmployeesModule_providers</title>
<polygon fill="none" stroke="black" points="556,-40.8 556,-92.8 778,-92.8 778,-40.8 556,-40.8"/>
</g>
<!-- BankAccountTypesModule -->
<g id="node1" class="node">
<title>BankAccountTypesModule</title>
<polygon fill="#8dd3c7" stroke="black" points="492.24,-160.8 489.24,-164.8 468.24,-164.8 465.24,-160.8 321.76,-160.8 321.76,-124.8 492.24,-124.8 492.24,-160.8"/>
<text text-anchor="middle" x="407" y="-138.6" font-family="Times,serif" font-size="14.00">BankAccountTypesModule</text>
</g>
<!-- AppModule -->
<g id="node4" class="node">
<title>AppModule</title>
<polygon fill="#8dd3c7" stroke="black" points="361.66,-225.8 358.66,-229.8 337.66,-229.8 334.66,-225.8 278.34,-225.8 278.34,-189.8 361.66,-189.8 361.66,-225.8"/>
<text text-anchor="middle" x="320" y="-203.6" font-family="Times,serif" font-size="14.00">AppModule</text>
</g>
<!-- BankAccountTypesModule&#45;&gt;AppModule -->
<g id="edge1" class="edge">
<title>BankAccountTypesModule&#45;&gt;AppModule</title>
<path fill="none" stroke="black" d="M341.73,-160.91C341.73,-160.91 341.73,-179.79 341.73,-179.79"/>
<polygon fill="black" stroke="black" points="338.23,-179.79 341.73,-189.79 345.23,-179.79 338.23,-179.79"/>
</g>
<!-- BankAccountsModule -->
<g id="node2" class="node">
<title>BankAccountsModule</title>
<polygon fill="#8dd3c7" stroke="black" points="303.97,-160.8 300.97,-164.8 279.97,-164.8 276.97,-160.8 162.03,-160.8 162.03,-124.8 303.97,-124.8 303.97,-160.8"/>
<text text-anchor="middle" x="233" y="-138.6" font-family="Times,serif" font-size="14.00">BankAccountsModule</text>
</g>
<!-- BankAccountsModule&#45;&gt;AppModule -->
<g id="edge2" class="edge">
<title>BankAccountsModule&#45;&gt;AppModule</title>
<path fill="none" stroke="black" d="M291.08,-160.91C291.08,-160.91 291.08,-179.79 291.08,-179.79"/>
<polygon fill="black" stroke="black" points="287.58,-179.79 291.08,-189.79 294.58,-179.79 287.58,-179.79"/>
</g>
<!-- BankEmployeesModule -->
<g id="node3" class="node">
<title>BankEmployeesModule</title>
<polygon fill="#8dd3c7" stroke="black" points="661.81,-160.8 658.81,-164.8 637.81,-164.8 634.81,-160.8 510.19,-160.8 510.19,-124.8 661.81,-124.8 661.81,-160.8"/>
<text text-anchor="middle" x="586" y="-138.6" font-family="Times,serif" font-size="14.00">BankEmployeesModule</text>
</g>
<!-- BankEmployeesModule&#45;&gt;AppModule -->
<g id="edge3" class="edge">
<title>BankEmployeesModule&#45;&gt;AppModule</title>
<path fill="none" stroke="black" d="M586,-160.91C586,-180.14 586,-207.8 586,-207.8 586,-207.8 371.86,-207.8 371.86,-207.8"/>
<polygon fill="black" stroke="black" points="371.86,-204.3 361.86,-207.8 371.86,-211.3 371.86,-204.3"/>
</g>
<!-- AppService -->
<g id="node5" class="node">
<title>AppService</title>
<ellipse fill="#fdb462" stroke="black" cx="81" cy="-142.8" rx="56.74" ry="18"/>
<text text-anchor="middle" x="81" y="-138.6" font-family="Times,serif" font-size="14.00">AppService</text>
</g>
<!-- AppService&#45;&gt;AppModule -->
<g id="edge4" class="edge">
<title>AppService&#45;&gt;AppModule</title>
<path fill="none" stroke="black" d="M81,-160.91C81,-180.14 81,-207.8 81,-207.8 81,-207.8 268.1,-207.8 268.1,-207.8"/>
<polygon fill="black" stroke="black" points="268.1,-211.3 278.1,-207.8 268.1,-204.3 268.1,-211.3"/>
</g>
<!-- BankAccountsService -->
<g id="node6" class="node">
<title>BankAccountsService</title>
<ellipse fill="#fdb462" stroke="black" cx="153" cy="-66.8" rx="96.69" ry="18"/>
<text text-anchor="middle" x="153" y="-62.6" font-family="Times,serif" font-size="14.00">BankAccountsService</text>
</g>
<!-- BankAccountsService&#45;&gt;BankAccountsModule -->
<g id="edge5" class="edge">
<title>BankAccountsService&#45;&gt;BankAccountsModule</title>
<path fill="none" stroke="black" d="M205.93,-82.18C205.93,-82.18 205.93,-114.77 205.93,-114.77"/>
<polygon fill="black" stroke="black" points="202.43,-114.77 205.93,-124.77 209.43,-114.77 202.43,-114.77"/>
</g>
<!-- BankAccountTypesService -->
<g id="node7" class="node">
<title>BankAccountTypesService</title>
<ellipse fill="#fdb462" stroke="black" cx="407" cy="-66.8" rx="116.88" ry="18"/>
<text text-anchor="middle" x="407" y="-62.6" font-family="Times,serif" font-size="14.00">BankAccountTypesService</text>
</g>
<!-- BankAccountTypesService&#45;&gt;BankAccountTypesModule -->
<g id="edge6" class="edge">
<title>BankAccountTypesService&#45;&gt;BankAccountTypesModule</title>
<path fill="none" stroke="black" d="M407,-84.81C407,-84.81 407,-114.65 407,-114.65"/>
<polygon fill="black" stroke="black" points="403.5,-114.65 407,-124.65 410.5,-114.65 403.5,-114.65"/>
</g>
<!-- BankEmployeesService -->
<g id="node8" class="node">
<title>BankEmployeesService</title>
<ellipse fill="#fdb462" stroke="black" cx="667" cy="-66.8" rx="103.07" ry="18"/>
<text text-anchor="middle" x="667" y="-62.6" font-family="Times,serif" font-size="14.00">BankEmployeesService</text>
</g>
<!-- BankEmployeesService&#45;&gt;BankEmployeesModule -->
<g id="edge7" class="edge">
<title>BankEmployeesService&#45;&gt;BankEmployeesModule</title>
<path fill="none" stroke="black" d="M612.68,-82.18C612.68,-82.18 612.68,-114.77 612.68,-114.77"/>
<polygon fill="black" stroke="black" points="609.18,-114.77 612.68,-124.77 616.18,-114.77 609.18,-114.77"/>
</g>
</g>
</svg>
